<?xml version="1.0" encoding="utf-8"?>
<!-- Generator: Adobe Illustrator 16.0.0, SVG Export Plug-In . SVG Version: 6.00 Build 0)  -->
<!DOCTYPE svg PUBLIC "-//W3C//DTD SVG 1.1//EN" "http://www.w3.org/Graphics/SVG/1.1/DTD/svg11.dtd">
<svg version="1.1" xmlns="http://www.w3.org/2000/svg" xmlns:xlink="http://www.w3.org/1999/xlink" x="0px" y="0px"
	 width="91.649px" height="92.379px" viewBox="0 0 91.649 92.379" enable-background="new 0 0 91.649 92.379" xml:space="preserve">
<g id="Layer_1">
	<g>
		<defs>
			<path id="SVGID_1_" d="M-1568.669-623.819c0,0-36.029,171.448-105.603,249.718s-129.207,100.631-190.083,113.056
				c-41.764,8.523-73.586,26.985-89.451,37.738v373.488c0,0,18.015-75.164,67.708-106.222
				c49.696-31.06,101.876-53.424,101.876-53.424s-18.636-54.664-40.999-73.299c-22.362-18.636-11.181-22.363-11.181-22.363
				l73.299-16.151c0,0,67.09,95.663,60.256,118.646c0,0,101.875-31.059,185.114-127.964
				c78.978-91.943,174.722-216.296,243.745-453.751v-39.472H-1568.669z"/>
		</defs>
		<clipPath id="SVGID_2_">
			<use xlink:href="#SVGID_1_"  overflow="visible"/>
		</clipPath>
		<g clip-path="url(#SVGID_2_)">
			<defs>
				<rect id="SVGID_3_" x="-1953.806" y="-623.819" width="2288.455" height="3513.438"/>
			</defs>
			<clipPath id="SVGID_4_">
				<use xlink:href="#SVGID_3_"  overflow="visible"/>
			</clipPath>
			<g transform="matrix(1 0 0 1 0 -6.103516e-005)" clip-path="url(#SVGID_4_)">
				
					<image overflow="visible" width="1842" height="2828" xlink:href="653CB724.jpg"  transform="matrix(1.2424 0 0 1.2424 -1953.8057 -623.8193)">
				</image>
			</g>
		</g>
	</g>
	<g>
		<defs>
			<rect id="SVGID_21_" x="-2639.987" y="-1023.819" width="1366" height="2759"/>
		</defs>
		<clipPath id="SVGID_6_">
			<use xlink:href="#SVGID_21_"  overflow="visible"/>
		</clipPath>
		<g clip-path="url(#SVGID_6_)">
			<defs>
				<path id="SVGID_23_" d="M-1702.846,2423.993c0,0,101.874,31.06,185.113,127.965s185.114,229.839,254.688,493.223h-305.625
					c0,0-36.028-171.448-105.602-249.718s-129.207-100.632-190.083-113.056c-60.877-12.424-100.633-45.968-100.633-45.968
					l11.182-365.259c0,0,18.015,75.164,67.709,106.223c49.695,31.06,101.875,53.424,101.875,53.424s-18.636,54.663-40.998,73.299
					c-22.363,18.636-11.182,22.363-11.182,22.363l73.3,16.15C-1763.102,2542.64-1696.013,2446.977-1702.846,2423.993"/>
			</defs>
			<clipPath id="SVGID_8_">
				<use xlink:href="#SVGID_23_"  overflow="visible"/>
			</clipPath>
			<g clip-path="url(#SVGID_8_)">
				<defs>
					<rect id="SVGID_25_" x="-1953.807" y="-468.257" width="2288.456" height="3513.438"/>
				</defs>
				<clipPath id="SVGID_10_">
					<use xlink:href="#SVGID_25_"  overflow="visible"/>
				</clipPath>
				<g clip-path="url(#SVGID_10_)">
					<defs>
						<rect id="SVGID_27_" x="-1953.806" y="-468.258" width="2288.455" height="3513.438"/>
					</defs>
					<clipPath id="SVGID_12_">
						<use xlink:href="#SVGID_27_"  overflow="visible"/>
					</clipPath>
					<g transform="matrix(1 0 0 1 0 2.441406e-004)" clip-path="url(#SVGID_12_)">
						
							<image overflow="visible" width="1842" height="2828" xlink:href="653CB725.jpg"  transform="matrix(1.2424 0 0 -1.2424 -1953.8057 3045.1807)">
						</image>
					</g>
				</g>
			</g>
		</g>
	</g>
	<g>
		<defs>
			<path id="SVGID_71_" d="M-541.567-41.606l-15.875-0.055c0,0,8,76.055,7.938,89.055s66.938-11,66.938,0s-3,95-6,97s35,14,33-5
				s-7-69,5-71s42-15,42,12s12-48,18-78s32-70,32-54s-15,87,0,106s36-2,39,4s-1,2,27,2s60-53.5,60-53.5l-28-710.5l-73-540l-439-170
				c0,0-385,30-378,35s-20,377-20,377l447,369.787l69,187.213l24,246l34,131l5,34L-541.567-41.606z"/>
		</defs>
		<clipPath id="SVGID_14_">
			<use xlink:href="#SVGID_71_"  overflow="visible"/>
		</clipPath>
		<g clip-path="url(#SVGID_14_)">
			<defs>
				<path id="SVGID_73_" d="M-397.181-852.479c1.355-2.246,1.08-4.171,1.08-4.171S-396.724-855.194-397.181-852.479
					 M-1055.31-1372.606l-0.643,0.9v425.852c35.33-0.014,113.592,2.267,169.617,20.944c74.467,24.822,153.068,24.822,175.822,72.396
					c22.754,47.576,64.124,126.179,51.713,163.412c-12.411,37.233-24.822,55.848-24.822,55.848l14.48,84.809h28.959
					c0,0,39.301,140.658,24.822,233.741h35.164v41.369l-16.549,10.343l6.206,64.123l51.712,10.343c0,0,8.274,86.877-10.342,86.877
					h-18.617l-2.068,59.987h12.412c0,0,6.205,93.083,0,213.055h287.521c0,0,2.068-31.027,0-35.164
					c-2.07-4.138,2.068-66.191-12.41-74.467c0,0,8.271-64.123,12.41-111.698l-8.275-8.275c0,0,2.068-41.37-8.275-49.643
					c-10.34-8.274-18.615-14.48-18.615-14.48s-8.273-142.726-18.615-148.932l-10.342-6.205c0,0,6.205-55.85-2.07-64.123
					c-8.273-8.274-14.48-16.549-14.48-16.549s2.07-80.671-6.203-93.082c-8.275-12.411-12.41-33.096-12.41-64.123
					c0-31.029,6.203-124.11,2.066-124.11s-12.41,0-10.342-6.206l2.068-6.205c0,0,10.342-20.686,0-26.892
					c-10.343-6.205-10.343-22.753-10.343-22.753l20.685-6.206c0,0-12.41-88.945-24.822-111.699
					c-8.475-15.537-8.269-27.217-7.285-33.062c-2.362,3.913-9.674,8.8-32.016,6.172c-35.164-4.137-64.123-169.618-64.123-169.618
					s-10.342-51.712-22.754-57.917c-12.41-6.206-33.096-4.138-33.096-4.138s-6.205-72.397-14.48-82.739
					c-8.273-10.343-26.89-14.479-37.232-6.206c-10.344,8.274-6.205,12.411-6.205,12.411l-41.37-6.205l-2.069-33.096
					c0,0,0,16.548-6.205,16.548s-20.685,4.137-20.685,4.137s20.685,18.616,16.548,28.959c-4.137,10.343,0,49.644-14.479,45.507
					c-14.479-4.139-43.438-6.206-43.438-6.206l-8.273-47.576l-28.959-2.068c0,0-16.549-51.712-10.342-55.849
					c6.203-4.138,14.479-4.138,14.479-4.138l-2.068-14.479h-12.41l-2.069-8.273c0,0-12.411,6.206-18.617,6.206
					c-6.205,0-20.685,2.068-20.685,2.068l-2.068-31.026l-33.096-10.343v-18.618l-16.549-2.067l2.068-10.344
					c0,0-43.438,2.069-45.506-8.272s-4.139-28.96-6.206-26.891s-14.479-2.069-14.479-2.069l-4.137-10.341l-22.754-2.069
					l-2.068-18.616l-22.754-2.068v-0.9H-1055.31z"/>
			</defs>
			<clipPath id="SVGID_16_">
				<use xlink:href="#SVGID_73_"  overflow="visible"/>
			</clipPath>
			<g clip-path="url(#SVGID_16_)">
				<defs>
					<rect id="SVGID_75_" x="-1055.951" y="-1434.181" width="1352.798" height="1614.549"/>
				</defs>
				<clipPath id="SVGID_18_">
					<use xlink:href="#SVGID_75_"  overflow="visible"/>
				</clipPath>
				<g transform="matrix(1 0 0 1 -1.220703e-004 0)" clip-path="url(#SVGID_18_)">
					
						<image overflow="visible" width="1075" height="1283" xlink:href="653CB723.jpg"  transform="matrix(1.2584 0 0 1.2584 -1055.9512 -1434.1812)">
					</image>
				</g>
			</g>
		</g>
	</g>
	<g>
		<path d="M90.287,6.916C87.104,0.742,79.58-1.766,73.406,1.321c-6.174,3.183-8.585,10.9-5.595,16.88s9.55,18.81,9.55,18.81
			c0.771,1.35,2.701,1.35,3.279,0c0,0,7.717-15.144,9.55-18.81C92.119,14.633,92.119,10.485,90.287,6.916z M79.098,19.166
			c-3.666,0-6.56-2.894-6.56-6.559s2.894-6.559,6.56-6.559c3.665,0,6.559,2.894,6.559,6.559S82.763,19.166,79.098,19.166z"/>
		<path d="M21.512,72.508c-0.29-0.675-1.158-1.061-1.93-0.675c-0.676,0.29-1.061,1.158-0.676,1.929
			c0.869,1.833,1.833,3.569,2.99,5.112c0.289,0.386,0.676,0.579,1.158,0.579c0.289,0,0.578-0.096,0.867-0.289
			c0.676-0.482,0.772-1.351,0.387-2.025C23.15,75.788,22.283,74.148,21.512,72.508z"/>
		<path d="M33.473,85.723c-1.544-0.868-3.088-1.929-4.438-3.183c-0.579-0.482-1.447-0.482-2.025,0.193
			c-0.482,0.579-0.482,1.447,0.192,2.026c1.544,1.254,3.087,2.411,4.823,3.473c0.192,0.096,0.482,0.193,0.675,0.193
			c0.482,0,0.965-0.29,1.254-0.675C34.34,86.978,34.146,86.109,33.473,85.723z"/>
		<path d="M19.293,65.66c-0.29-1.736-0.482-3.569-0.482-5.402c0-0.771-0.676-1.447-1.447-1.447s-1.447,0.675-1.447,1.447
			c0,2.026,0.193,3.955,0.579,5.884c0.097,0.675,0.771,1.157,1.351,1.157c0.096,0,0.193,0,0.289,0
			C18.906,67.203,19.485,66.432,19.293,65.66z"/>
		<path d="M57.877,88.038c-1.736,0.579-3.473,1.062-5.307,1.254c-0.771,0.097-1.35,0.868-1.156,1.64
			c0.096,0.675,0.675,1.254,1.446,1.254c0.097,0,0.097,0,0.192,0c1.93-0.29,3.859-0.771,5.788-1.447
			c0.772-0.29,1.157-1.061,0.868-1.833C59.516,88.135,58.648,87.749,57.877,88.038z"/>
		<path d="M45.434,89.582c-1.834-0.193-3.57-0.482-5.307-0.964c-0.771-0.193-1.543,0.193-1.735,0.964
			c-0.192,0.772,0.192,1.543,0.964,1.736c1.93,0.579,3.859,0.868,5.885,1.061h0.096c0.772,0,1.352-0.579,1.447-1.254
			C46.783,90.354,46.205,89.582,45.434,89.582z"/>
		<path d="M79.098,57.171c-0.771,0-1.447,0.675-1.447,1.447v1.736c0,1.254-0.096,2.508-0.289,3.762
			c-0.097,0.772,0.482,1.447,1.254,1.64c0.096,0,0.096,0,0.193,0c0.675,0,1.35-0.482,1.446-1.254c0.192-1.35,0.29-2.797,0.29-4.147
			v-1.736C80.545,57.75,79.869,57.171,79.098,57.171z"/>
		<path d="M79.098,43.86c-0.771,0-1.447,0.675-1.447,1.447v5.691c0,0.771,0.676,1.447,1.447,1.447s1.447-0.675,1.447-1.447v-5.691
			C80.545,44.438,79.869,43.86,79.098,43.86z"/>
		<path d="M77.457,70.193c-0.771-0.29-1.543,0.097-1.832,0.771c-0.676,1.64-1.447,3.28-2.412,4.823
			c-0.385,0.675-0.192,1.543,0.482,1.929c0.193,0.193,0.482,0.193,0.771,0.193c0.482,0,0.965-0.193,1.254-0.675
			c1.062-1.64,1.93-3.473,2.701-5.305C78.615,71.351,78.229,70.482,77.457,70.193z"/>
		<path d="M68.584,81.479c-1.352,1.254-2.701,2.412-4.245,3.376c-0.675,0.386-0.868,1.351-0.386,1.929
			c0.289,0.386,0.771,0.675,1.158,0.675c0.289,0,0.578-0.096,0.771-0.193c1.639-1.061,3.183-2.315,4.63-3.666
			c0.579-0.579,0.579-1.447,0-2.025C70.127,80.9,69.162,80.9,68.584,81.479z"/>
		<path d="M17.363-0.029C7.814-0.029,0,8.17,0,18.298v18.617c0,10.128,7.814,18.328,17.363,18.328l0,0l0,0l0,0l0,0
			c9.549,0,17.363-8.199,17.363-18.328V18.298C34.822,8.17,27.01-0.029,17.363-0.029z M16.013,52.445
			C8.682,51.673,2.895,45.018,2.895,37.011V32.96h13.118V52.445z M31.929,37.011c0,8.006-5.788,14.662-13.118,15.434V32.96h13.118
			V37.011z M32.025,30.066H2.895V18.298c0-8.488,6.463-15.434,14.469-15.53c8.006,0,14.565,6.945,14.565,15.53v11.768H32.025z
			 M17.363,0.067L17.363,0.067L17.363,0.067z"/>
	</g>
</g>
<g id="Layer_2">
</g>
</svg>
