<?xml version="1.0" encoding="utf-8"?>
<!-- Generator: Adobe Illustrator 16.0.0, SVG Export Plug-In . SVG Version: 6.00 Build 0)  -->
<!DOCTYPE svg PUBLIC "-//W3C//DTD SVG 1.1//EN" "http://www.w3.org/Graphics/SVG/1.1/DTD/svg11.dtd">
<svg version="1.1" xmlns="http://www.w3.org/2000/svg" xmlns:xlink="http://www.w3.org/1999/xlink" x="0px" y="0px" width="204px"
	 height="56.026px" viewBox="0 0 204 56.026" enable-background="new 0 0 204 56.026" xml:space="preserve">
<g id="Layer_1">
	<g>
		<defs>
			<path id="SVGID_1_" d="M-1521.682-841c0,0-36.029,171.448-105.603,249.718s-129.207,100.631-190.083,113.056
				c-41.764,8.523-73.586,26.985-89.451,37.738V-67c0,0,18.015-75.164,67.708-106.222c49.696-31.06,101.876-53.424,101.876-53.424
				s-18.636-54.664-40.999-73.299c-22.362-18.636-11.181-22.363-11.181-22.363l73.299-16.151c0,0,67.09,95.663,60.256,118.646
				c0,0,101.875-31.059,185.114-127.964c78.978-91.943,174.722-216.296,243.745-453.751V-841H-1521.682z"/>
		</defs>
		<clipPath id="SVGID_2_">
			<use xlink:href="#SVGID_1_"  overflow="visible"/>
		</clipPath>
		<g clip-path="url(#SVGID_2_)">
			<defs>
				<rect id="SVGID_3_" x="-1906.818" y="-841" width="2288.455" height="3513.438"/>
			</defs>
			<clipPath id="SVGID_4_">
				<use xlink:href="#SVGID_3_"  overflow="visible"/>
			</clipPath>
			<g transform="matrix(1 0 0 1 -1.220703e-004 0)" clip-path="url(#SVGID_4_)">
				
					<image overflow="visible" width="1842" height="2828" xlink:href="984E5C55.jpg"  transform="matrix(1.2424 0 0 1.2424 -1906.8184 -841)">
				</image>
			</g>
		</g>
	</g>
	<g>
		<defs>
			<rect id="SVGID_21_" x="-2593" y="-1241" width="1366" height="2759"/>
		</defs>
		<clipPath id="SVGID_6_">
			<use xlink:href="#SVGID_21_"  overflow="visible"/>
		</clipPath>
		<g clip-path="url(#SVGID_6_)">
			<defs>
				<path id="SVGID_23_" d="M-1655.858,2206.813c0,0,101.874,31.06,185.113,127.965s185.114,229.839,254.688,493.223h-305.625
					c0,0-36.028-171.448-105.602-249.718s-129.207-100.632-190.083-113.056c-60.877-12.424-100.633-45.968-100.633-45.968
					l11.182-365.259c0,0,18.015,75.164,67.709,106.223c49.695,31.06,101.875,53.424,101.875,53.424s-18.636,54.663-40.998,73.299
					c-22.363,18.636-11.182,22.363-11.182,22.363l73.3,16.15C-1716.114,2325.459-1649.025,2229.796-1655.858,2206.813"/>
			</defs>
			<clipPath id="SVGID_8_">
				<use xlink:href="#SVGID_23_"  overflow="visible"/>
			</clipPath>
			<g clip-path="url(#SVGID_8_)">
				<defs>
					<rect id="SVGID_25_" x="-1906.819" y="-685.438" width="2288.456" height="3513.438"/>
				</defs>
				<clipPath id="SVGID_10_">
					<use xlink:href="#SVGID_25_"  overflow="visible"/>
				</clipPath>
				<g clip-path="url(#SVGID_10_)">
					<defs>
						<rect id="SVGID_27_" x="-1906.818" y="-685.438" width="2288.455" height="3513.438"/>
					</defs>
					<clipPath id="SVGID_12_">
						<use xlink:href="#SVGID_27_"  overflow="visible"/>
					</clipPath>
					<g transform="matrix(1 0 0 1 -1.220703e-004 0)" clip-path="url(#SVGID_12_)">
						
							<image overflow="visible" width="1842" height="2828" xlink:href="984E5C57.jpg"  transform="matrix(1.2424 0 0 -1.2424 -1906.8184 2828)">
						</image>
					</g>
				</g>
			</g>
		</g>
	</g>
	<rect x="6.578" y="5.026" fill="#FFFFFF" stroke="#000000" stroke-width="4" stroke-miterlimit="10" width="192" height="49"/>
	<g>
		<path d="M40.889,32.395v0.48h-5.041v-0.48l1.28-0.4v-5.601c0-1.26-0.4-1.9-1.5-1.9c-0.7,0-1.48,0.36-2.001,0.94v6.561l1.181,0.4
			v0.48h-4.921v-0.48l1.26-0.4v-7.281l-1.26-0.2v-0.54l3.74-0.86v1.561c1.08-1.14,2.261-1.561,3.281-1.561
			c1.439,0,2.14,0.76,2.5,1.521c1.061-1.06,2.461-1.521,3.461-1.521c1.84,0,2.681,1.16,2.681,3.021v5.861l1.3,0.4v0.48h-5.041v-0.48
			l1.28-0.4v-5.601c0-1.3-0.399-1.9-1.58-1.9c-0.601,0-1.38,0.3-1.921,0.74v6.761L40.889,32.395z"/>
		<path d="M53.508,31.955v-0.28c-0.841,0.98-1.98,1.48-3.181,1.48c-1.16,0-2.301-0.4-2.301-1.841c0-1.82,2.08-2.94,5.481-3.38
			v-2.221c0-1.4-0.301-1.96-1.16-1.96c-1.081,0-1.661,0.98-1.701,2.641h-0.74c-1.479,0-1.62-0.52-1.62-0.9
			c0-1.621,2.641-2.381,4.562-2.381c2.48,0,3.2,1.18,3.2,2.741v5.621c0,0.76,0.26,0.88,0.82,0.88h0.42l-0.02,0.48
			c-0.74,0.2-1.78,0.32-2.461,0.32C53.888,33.155,53.508,32.735,53.508,31.955z M53.508,30.834v-2.3
			c-1.08,0.24-2.861,0.84-2.861,2.28c0,0.72,0.421,1.12,1.041,1.12C52.287,31.935,53.027,31.535,53.508,30.834z"/>
		<path d="M58.365,32.875v-0.48l1.261-0.4v-7.281l-1.261-0.2v-0.54l3.741-0.86v2.181c1.2-1.601,2.16-2.181,3.041-2.181
			c0.479,0,1.08,0.18,1.08,1.021c0,0.76-0.38,1.4-0.62,1.66c-0.46-0.28-1.08-0.56-1.721-0.56c-0.52,0-1.1,0.14-1.78,0.9v5.861
			l1.4,0.4v0.48H58.365z"/>
		<path d="M83.009,31.855v0.52l-3.741,0.78v-1.621c-0.58,0.8-1.66,1.621-2.94,1.621c-2.701,0-3.801-2.021-3.801-4.481
			c0-3.981,2.58-5.562,5.001-5.562c0.62,0,1.22,0.08,1.74,0.2v-3.541l-1.34-0.18v-0.56l3.82-0.72v13.343L83.009,31.855z
			 M79.268,30.774v-6.221c-0.34-0.4-1.141-0.82-1.9-0.82c-1.601,0-2.4,1.541-2.4,4.001c0,2.26,0.58,4.041,2.381,4.041
			C77.987,31.775,78.688,31.435,79.268,30.774z"/>
		<path d="M84.126,28.594c0-3.441,2.261-5.481,4.9-5.481c2.301,0,3.841,1.3,3.841,3.541c0,0.26-0.02,0.64-0.039,0.76h-6.262v0.22
			c0,2.941,1.12,4.321,3.08,4.321c1.041,0,1.881-0.32,2.841-1.04l0.341,0.52c-1.061,0.98-2.461,1.721-4.142,1.721
			C85.826,33.155,84.126,31.675,84.126,28.594z M86.606,26.694h3.641c0.021-0.22,0.06-0.48,0.06-0.78c0-1.28-0.279-2.161-1.38-2.161
			S86.847,24.633,86.606,26.694z"/>
		<path d="M104.847,23.113c1.62,0,3.201,0.8,3.201,2c0,0.66-0.4,1.18-2.161,1.18c-0.02-1.38-0.22-2.561-1.399-2.561
			c-1.421,0-2.381,1.621-2.381,4.281c0,2.38,1.061,3.94,3.001,3.94c0.899,0,1.8-0.42,2.72-1.12l0.341,0.52
			c-1.021,0.98-2.48,1.801-4.222,1.801c-2.36,0-4.28-1.201-4.28-4.361C99.666,25.533,101.646,23.113,104.847,23.113z"/>
		<path d="M109.586,28.434c0-3.281,1.88-5.321,4.821-5.321c2.84,0,4.78,1.82,4.78,4.721c0,3.281-1.82,5.321-4.82,5.321
			C111.526,33.155,109.586,31.334,109.586,28.434z M116.587,28.134c0-2.72-0.68-4.401-2.22-4.401c-1.48,0-2.181,1.721-2.181,4.401
			c0,2.721,0.68,4.401,2.221,4.401C115.887,32.535,116.587,30.814,116.587,28.134z"/>
		<path d="M124.386,24.633c1.021-1.021,2.301-1.521,3.381-1.521c1.841,0,2.66,1.16,2.66,3.041v5.841l1.301,0.4v0.48h-5.041v-0.48
			l1.28-0.4v-5.581c0-1.28-0.48-1.92-1.561-1.92c-0.68,0-1.44,0.38-2.021,0.94v6.561l1.181,0.4v0.48h-4.922v-0.48l1.261-0.4v-7.281
			l-1.261-0.2v-0.54l3.741-0.86V24.633z"/>
		<path d="M138.025,23.113c1.62,0,3.201,0.8,3.201,2c0,0.66-0.4,1.18-2.161,1.18c-0.02-1.38-0.22-2.561-1.399-2.561
			c-1.421,0-2.381,1.621-2.381,4.281c0,2.38,1.061,3.94,3.001,3.94c0.899,0,1.8-0.42,2.72-1.12l0.341,0.52
			c-1.021,0.98-2.48,1.801-4.222,1.801c-2.36,0-4.28-1.201-4.28-4.361C132.845,25.533,134.825,23.113,138.025,23.113z"/>
		<path d="M142.686,32.875v-0.48l1.26-0.4v-7.281l-1.26-0.2v-0.54l3.74-0.86v2.181c1.2-1.601,2.16-2.181,3.041-2.181
			c0.479,0,1.08,0.18,1.08,1.021c0,0.76-0.38,1.4-0.62,1.66c-0.46-0.28-1.08-0.56-1.721-0.56c-0.52,0-1.1,0.14-1.78,0.9v5.861
			l1.4,0.4v0.48H142.686z"/>
		<path d="M151.364,28.594c0-3.441,2.261-5.481,4.9-5.481c2.301,0,3.841,1.3,3.841,3.541c0,0.26-0.02,0.64-0.039,0.76h-6.262v0.22
			c0,2.941,1.12,4.321,3.08,4.321c1.041,0,1.881-0.32,2.841-1.04l0.341,0.52c-1.061,0.98-2.461,1.721-4.142,1.721
			C153.064,33.155,151.364,31.675,151.364,28.594z M153.845,26.694h3.641c0.021-0.22,0.06-0.48,0.06-0.78
			c0-1.28-0.279-2.161-1.38-2.161S154.085,24.633,153.845,26.694z"/>
		<path d="M162.784,30.935v-6.642h-1.28v-0.9h1.301l1.72-2.321h0.74v2.321h2.28v0.9h-2.28v6.481c0,0.92,0.22,1.3,0.9,1.3
			c0.38,0,1.04-0.24,1.46-0.48l0.2,0.64c-0.78,0.5-1.96,0.92-2.961,0.92C163.484,33.155,162.784,32.455,162.784,30.935z"/>
		<path d="M168.765,28.434c0-3.281,1.88-5.321,4.821-5.321c2.84,0,4.78,1.82,4.78,4.721c0,3.281-1.82,5.321-4.82,5.321
			C170.705,33.155,168.765,31.334,168.765,28.434z M175.766,28.134c0-2.72-0.68-4.401-2.22-4.401c-1.48,0-2.181,1.721-2.181,4.401
			c0,2.721,0.68,4.401,2.221,4.401C175.065,32.535,175.766,30.814,175.766,28.134z"/>
	</g>
</g>
<g id="Layer_2">
</g>
</svg>
